<svg width="16" height="16" viewBox="0 0 16 16" fill="none" xmlns="http://www.w3.org/2000/svg">
<path d="M10.2525 3.64295C10.1588 3.73669 10.0316 3.78934 9.89903 3.78934C9.76645 3.78934 9.6393 3.73669 9.54553 3.64295C9.40847 3.50537 9.24551 3.39632 9.06606 3.32208C8.88661 3.24785 8.69423 3.20991 8.50003 3.21045C8.09003 3.21045 7.72353 3.37495 7.45453 3.64295C7.40811 3.68937 7.353 3.7262 7.29235 3.75132C7.23169 3.77644 7.16668 3.78937 7.10103 3.78937C6.96845 3.78937 6.84129 3.7367 6.74753 3.64295C6.70111 3.59653 6.66429 3.54142 6.63916 3.48076C6.61404 3.42011 6.60111 3.3551 6.60111 3.28945C6.60111 3.15686 6.65378 3.0297 6.74753 2.93595C6.9776 2.70573 7.25081 2.52315 7.55153 2.39866C7.85225 2.27417 8.17457 2.21021 8.50003 2.21045C8.8255 2.21021 9.14782 2.27417 9.44854 2.39866C9.74926 2.52315 10.0225 2.70573 10.2525 2.93595C10.3463 3.02971 10.3989 3.15687 10.3989 3.28945C10.3989 3.42203 10.3463 3.54919 10.2525 3.64295ZM4.44703 3.16545C4.00534 3.42347 3.60586 3.74775 3.26253 4.12695L3.26203 4.12745C2.91754 4.50806 2.63371 4.93945 2.42053 5.40645C2.20169 5.88568 2.06074 6.39678 2.00303 6.92045C1.99581 6.98572 2.00151 7.05177 2.01982 7.11483C2.03812 7.17789 2.06867 7.23673 2.10971 7.28799C2.15075 7.33925 2.20149 7.38192 2.25903 7.41357C2.31656 7.44522 2.37977 7.46523 2.44503 7.47245C2.5103 7.47967 2.57635 7.47397 2.63941 7.45567C2.70248 7.43736 2.76132 7.40682 2.81258 7.36577C2.86383 7.32473 2.90651 7.27399 2.93815 7.21646C2.9698 7.15892 2.98981 7.09572 2.99703 7.03045C3.04394 6.61242 3.15649 6.20441 3.33053 5.82145C3.67312 5.07111 4.23931 4.44502 4.95153 4.02895C5.00823 3.99582 5.05785 3.95185 5.09756 3.89955C5.13726 3.84725 5.16628 3.78764 5.18295 3.72413C5.19961 3.66061 5.20361 3.59443 5.1947 3.52937C5.18579 3.46432 5.16416 3.40165 5.13103 3.34495C5.09791 3.28825 5.05394 3.23863 5.00164 3.19893C4.94934 3.15922 4.88973 3.13021 4.82621 3.11354C4.69793 3.07988 4.56154 3.09855 4.44703 3.16545ZM12 8.74995C12 8.61734 12.0527 8.49016 12.1465 8.3964C12.2402 8.30263 12.3674 8.24995 12.5 8.24995C12.6326 8.24995 12.7598 8.30263 12.8536 8.3964C12.9474 8.49016 13 8.61734 13 8.74995C12.9993 9.20105 12.8242 9.63439 12.5112 9.95927C12.1983 10.2842 11.7718 10.4754 11.321 10.4929C11.4325 10.7224 11.5 10.9774 11.5 11.2499C11.5 11.3826 11.4474 11.5097 11.3536 11.6035C11.2598 11.6973 11.1326 11.7499 11 11.7499C10.8674 11.7499 10.7402 11.6973 10.6465 11.6035C10.5527 11.5097 10.5 11.3826 10.5 11.2499C10.5 11.051 10.421 10.8603 10.2804 10.7196C10.1397 10.579 9.94895 10.4999 9.75003 10.4999H6.65903C6.52643 10.4999 6.39925 10.4473 6.30548 10.3535C6.21171 10.2597 6.15903 10.1326 6.15903 9.99995C6.15903 9.86734 6.21171 9.74016 6.30548 9.6464C6.39925 9.55263 6.52643 9.49995 6.65903 9.49995H7.75003C7.94882 9.49955 8.13936 9.42041 8.27993 9.27984C8.42049 9.13928 8.49964 8.94874 8.50003 8.74995C8.50003 8.61734 8.55271 8.49016 8.64648 8.3964C8.74025 8.30263 8.86743 8.24995 9.00003 8.24995C9.13264 8.24995 9.25982 8.30263 9.35359 8.3964C9.44736 8.49016 9.50003 8.61734 9.50003 8.74995C9.50003 9.01945 9.43403 9.27195 9.32503 9.49995H11.25C11.4488 9.49955 11.6394 9.42041 11.7799 9.27984C11.9205 9.13928 11.9996 8.94874 12 8.74995Z" fill="black"/>
<path d="M16 8.3555C16 8.0415 15.9775 7.7375 15.943 7.4425C15.4895 3.5335 12.174 0.501 8.1445 0.5H7.5285C3.37 0.5005 0.0005 3.87 0 8.0285C0 8.41872 0.0768601 8.80512 0.226192 9.16564C0.375524 9.52616 0.594403 9.85374 0.870332 10.1297C1.4276 10.6869 2.18341 11 2.9715 11H3.592C3.76016 11.7113 4.16342 12.3451 4.73652 12.7988C5.30963 13.2525 6.01905 13.4996 6.75 13.5H10.302L11.86 15.058C11.9124 15.1104 11.9792 15.146 12.0519 15.1605C12.1246 15.1749 12.2 15.1675 12.2685 15.1391C12.3369 15.1108 12.3955 15.0628 12.4367 15.0012C12.4779 14.9396 12.4999 14.8671 12.5 14.793V13.4585C13.2685 13.3627 13.9926 13.0455 14.5842 12.5457C15.1758 12.0458 15.6093 11.3848 15.832 10.643C15.9035 10.404 15.9445 10.152 15.9705 9.8955L15.972 9.8915C15.986 9.8455 16 9.8 16 9.75C15.9997 9.71933 15.9983 9.689 15.996 9.659L15.9925 9.6015C15.9928 9.5855 15.994 9.57 15.996 9.555C15.9987 9.53667 16 9.51833 16 9.5V8.3555ZM14.874 10.3575C14.6894 10.9764 14.31 11.5192 13.7922 11.9052C13.2744 12.2912 12.6458 12.4998 12 12.5H6.75C6.18895 12.4997 5.64824 12.2898 5.23394 11.9115C4.81963 11.5332 4.56162 11.0137 4.5105 10.455L4.5075 10.423C4.52421 9.77361 4.79435 9.15653 5.26014 8.70373C5.72593 8.25093 6.3504 7.99835 7 8C7.13261 8 7.25979 7.94732 7.35355 7.85355C7.44732 7.75979 7.5 7.63261 7.5 7.5C7.5 7.36739 7.44732 7.24021 7.35355 7.14645C7.25979 7.05268 7.13261 7 7 7C6.41284 6.99998 5.83511 7.14768 5.32 7.4295C5.22169 7.20859 5.08413 7.00733 4.914 6.8355C4.82025 6.74175 4.69309 6.68908 4.5605 6.68908C4.42791 6.68908 4.30075 6.74175 4.207 6.8355C4.11325 6.92925 4.06058 7.05641 4.06058 7.189C4.06058 7.32159 4.11325 7.44875 4.207 7.5425C4.349 7.685 4.4455 7.8675 4.482 8.072C3.97388 8.60018 3.64439 9.27456 3.54 10H2.9715C2.71247 10.0004 2.45591 9.94959 2.21659 9.85048C1.97727 9.75137 1.7599 9.60592 1.577 9.4225C1.39373 9.23961 1.24841 9.02231 1.14938 8.78308C1.05036 8.54385 0.999596 8.28741 1 8.0285C1 6.224 1.73 4.595 2.912 3.412C3.51732 2.80452 4.23687 2.32282 5.02918 1.99467C5.8215 1.66652 6.67092 1.4984 7.5285 1.5H8.1445C11.4895 1.499 14.2675 3.9 14.87 7.0695C14.3186 6.53179 13.6151 6.17688 12.855 6.053C13.1065 5.592 13.25 5.0625 13.25 4.5C13.25 4.36739 13.1973 4.24021 13.1036 4.14645C13.0098 4.05268 12.8826 4 12.75 4C12.6174 4 12.4902 4.05268 12.3964 4.14645C12.3027 4.24021 12.25 4.36739 12.25 4.5C12.2505 4.79556 12.1926 5.0883 12.0795 5.36136C11.9664 5.63442 11.8004 5.8824 11.591 6.091C11.3824 6.30038 11.1344 6.4664 10.8614 6.5795C10.5883 6.6926 10.2956 6.75055 10 6.75C9.86739 6.75 9.74021 6.80268 9.64645 6.89645C9.55268 6.99021 9.5 7.11739 9.5 7.25C9.5 7.38261 9.55268 7.50979 9.64645 7.60355C9.74021 7.69732 9.86739 7.75 10 7.75C10.773 7.75047 11.5206 7.47412 12.1075 6.971L12.1155 6.9735C12.1589 6.98847 12.2042 6.99738 12.25 7C13.011 7 13.6955 7.307 14.1945 7.8055C14.6734 8.28489 14.9577 8.92475 14.9925 9.6015C14.9854 9.85752 14.9456 10.1116 14.874 10.3575Z" fill="black"/>
</svg>
