<svg width="32" height="32" viewBox="0 0 32 32" fill="none" xmlns="http://www.w3.org/2000/svg">
<path d="M5.33329 26.6667C4.59996 26.6667 3.9724 26.4058 3.45063 25.884C2.92885 25.3623 2.66751 24.7343 2.66663 24V8.00004C2.66663 7.26671 2.92796 6.63915 3.45063 6.11737C3.97329 5.5956 4.60085 5.33426 5.33329 5.33337H26.6666C27.4 5.33337 28.028 5.59471 28.5506 6.11737C29.0733 6.64004 29.3342 7.2676 29.3333 8.00004V24C29.3333 24.7334 29.0724 25.3614 28.5506 25.884C28.0288 26.4067 27.4008 26.6676 26.6666 26.6667H5.33329ZM16 17.3334L5.33329 10.6667V24H26.6666V10.6667L16 17.3334ZM16 14.6667L26.6666 8.00004H5.33329L16 14.6667ZM5.33329 10.6667V8.00004V24V10.6667Z" fill="#1B1B1B"/>
</svg>
